<?xml version="1.0" encoding="UTF-8" standalone="no"?>
<!DOCTYPE svg PUBLIC "-//W3C//DTD SVG 1.1//EN" "http://www.w3.org/Graphics/SVG/1.1/DTD/svg11.dtd">
<svg width="100%" height="100%" viewBox="0 0 74 74" version="1.1" xmlns="http://www.w3.org/2000/svg" xmlns:xlink="http://www.w3.org/1999/xlink" xml:space="preserve" xmlns:serif="http://www.serif.com/" style="fill-rule:evenodd;clip-rule:evenodd;stroke-linejoin:round;stroke-miterlimit:2;">
    <g id="Camada_1-2">
    </g>
    <g id="Artboard1" transform="matrix(1,0,0,1,-122,0)">
        <rect x="122" y="0" width="73.88" height="73.88" style="fill:none;"/>
        <g transform="matrix(1,0,0,1,122,0)">
            <circle cx="36.94" cy="36.94" r="36.94"/>
        </g>
        <g transform="matrix(0.490619,0,0,0.490619,130.045,18.8181)">
            <path d="M92.53,28.38L99.84,32.6C100.13,32.77 100.37,33.01 100.54,33.3C100.71,33.59 100.8,33.92 100.8,34.26C100.8,34.6 100.71,34.93 100.54,35.22C100.37,35.51 100.13,35.75 99.84,35.92L92.53,40.14C92.24,40.31 91.91,40.4 91.57,40.4C91.23,40.4 90.9,40.31 90.61,40.14C90.32,39.97 90.08,39.73 89.91,39.44C89.74,39.15 89.65,38.82 89.65,38.48L89.65,30.05C89.65,29.71 89.74,29.38 89.91,29.09C90.08,28.8 90.32,28.56 90.61,28.39C90.9,28.22 91.23,28.13 91.57,28.13C91.91,28.13 92.24,28.22 92.53,28.39L92.53,28.38Z" style="fill:white;fill-rule:nonzero;"/>
        </g>
        <g transform="matrix(0.490619,0,0,0.490619,130.045,18.8181)">
            <path d="M79.05,0C77.14,0 75.31,0.76 73.97,2.1C72.63,3.44 71.87,5.27 71.87,7.18L71.87,23.21C71.85,23.34 71.82,48.74 71.82,48.74C71.82,57.27 61.88,63.5 52.96,56.47C52.12,55.8 51.44,54.95 50.98,53.98C50.52,53.01 50.28,51.95 50.28,50.87L50.28,35.02L50.3,35.02L50.3,7.18C50.3,5.28 49.54,3.45 48.2,2.1C46.84,0.76 45.02,0 43.11,0C41.21,0 39.38,0.75 38.03,2.1C36.68,3.44 35.93,5.27 35.92,7.17C35.92,14.08 35.91,23.51 35.9,23.6L35.9,50.86C35.9,51.94 35.67,53 35.2,53.97C34.73,54.94 34.06,55.79 33.22,56.47C24.29,63.49 14.36,57.26 14.36,48.74L14.36,23.6C14.39,22.42 14.39,21.27 14.36,20.14L14.36,7.18C14.36,5.28 13.6,3.45 12.26,2.1C10.91,0.76 9.09,0 7.18,0C5.27,0 3.45,0.76 2.1,2.1C0.76,3.45 0,5.28 0,7.18L0,53.33C-0.01,56.55 0.83,59.72 2.42,62.51C4.02,65.31 6.32,67.63 9.11,69.25C20.34,75.73 31.25,74.96 39.13,69.66C41.55,68.03 44.74,68.15 47.17,69.76C55.34,75.19 67.1,75.74 78.19,68.36C83.25,64.99 86.19,59.23 86.19,53.15L86.24,35.01L86.24,7.18C86.24,5.28 85.48,3.45 84.14,2.1C82.78,0.76 80.96,0 79.05,0Z" style="fill:white;fill-rule:nonzero;"/>
        </g>
        <g transform="matrix(0.490619,0,0,0.490619,130.045,18.8181)">
            <path d="M117.79,7.02C117.75,5.18 117,3.43 115.69,2.14C114.38,0.85 112.61,0.13 110.77,0.13C108.93,0.13 107.17,0.85 105.85,2.14C104.54,3.43 103.78,5.18 103.75,7.02L103.75,36.33C103.75,36.54 103.75,36.74 103.78,36.94C103.81,37.14 103.75,37.35 103.75,37.55L103.75,66.86C103.79,68.7 104.54,70.45 105.85,71.74C107.16,73.03 108.93,73.75 110.77,73.75C112.61,73.75 114.37,73.03 115.69,71.74C117,70.45 117.76,68.7 117.79,66.86L117.79,37.55C117.79,37.34 117.77,37.14 117.76,36.94C117.75,36.74 117.79,36.53 117.79,36.33L117.79,7.02Z" style="fill:white;fill-rule:nonzero;"/>
        </g>
    </g>
</svg>
